<?xml version="1.0" encoding="utf-8"?><svg xmlns="http://www.w3.org/2000/svg" xmlns:xlink="http://www.w3.org/1999/xlink"><symbol viewBox="0 0 14 14" id="angle-down" xmlns="http://www.w3.org/2000/svg"><path d="M12.688 3.65L7.222 8.979l-5.467-5.33a.523.523 0 00-.841.164.498.498 0 00.11.548l5.816 5.67a.547.547 0 00.763 0l5.816-5.67a.498.498 0 000-.712.523.523 0 00-.73 0z"/></symbol><symbol viewBox="0 0 20 20" id="angle-left" xmlns="http://www.w3.org/2000/svg"><g clip-path="url(#bclip0_49_4581)"><path d="M14.786 18.126l-7.613-7.81 7.613-7.809a.747.747 0 000-1.044.711.711 0 00-1.016 0l-8.1 8.308a.781.781 0 000 1.09l8.099 8.309a.71.71 0 001.018 0 .747.747 0 000-1.044h-.001z"/></g><defs><clipPath id="bclip0_49_4581"><path transform="rotate(90 10 10)" d="M0 0h20v20H0z"/></clipPath></defs></symbol><symbol viewBox="0 0 20 20" id="angle-right" xmlns="http://www.w3.org/2000/svg"><path d="M5.214 1.874l7.613 7.81-7.613 7.809a.747.747 0 000 1.044.711.711 0 001.016 0l8.1-8.308a.781.781 0 000-1.09L6.23.83a.71.71 0 00-1.018 0 .747.747 0 000 1.044h.001z"/></symbol><symbol viewBox="0 0 15 15" id="facebook" xmlns="http://www.w3.org/2000/svg"><path fill-rule="evenodd" clip-rule="evenodd" d="M0 7.542C0 11.27 2.708 14.372 6.25 15V9.583H4.375V7.5H6.25V5.833c0-1.875 1.208-2.916 2.917-2.916.541 0 1.125.083 1.666.166V5h-.958c-.917 0-1.125.458-1.125 1.042V7.5h2l-.333 2.083H8.75V15c3.542-.629 6.25-3.729 6.25-7.458C15 3.394 11.625 0 7.5 0S0 3.394 0 7.542z"/></symbol><symbol viewBox="0 0 15 15" id="instagram" xmlns="http://www.w3.org/2000/svg"><g clip-path="url(#eclip0_49_5020)"><path d="M7.5 0A7.469 7.469 0 000 7.5C0 11.667 3.333 15 7.5 15S15 11.667 15 7.5 11.667 0 7.5 0zm0 5.833c.917 0 1.667.75 1.667 1.667S8.417 9.167 7.5 9.167 5.833 8.417 5.833 7.5s.75-1.667 1.667-1.667zm2.333-1.666c0-.584.5-1 1-1s1 .5 1 1-.416 1-1 1c-.583 0-1-.417-1-1zM7.5 13.333A5.797 5.797 0 011.667 7.5h2.5c0 1.833 1.5 3.333 3.333 3.333 1.833 0 3.333-1.5 3.333-3.333h2.5A5.797 5.797 0 017.5 13.333z"/></g><defs><clipPath id="eclip0_49_5020"><path d="M0 0h15v15H0z"/></clipPath></defs></symbol><symbol viewBox="0 0 77 50" id="logo" xmlns="http://www.w3.org/2000/svg"><path d="M3.155 42.905l3.13 6.959H5.49l-2.336-5.281-2.335 5.28H0l3.155-6.958zm4.794.31h2.5c.22.001.438.017.655.048.203.033.4.093.584.18.337.158.62.403.814.708.215.329.323.71.313 1.096.006.281-.045.561-.149.825a2.237 2.237 0 01-.384.63 1.84 1.84 0 01-.512.417c-.186.093-.39.152-.6.175l.877 1.285c.287.426.578.853.865 1.285h-.876l-.84-1.256-.845-1.266H8.702v2.522H7.97v-6.649h-.02zm2.484 3.535h.41a2.25 2.25 0 00.405-.072.892.892 0 00.338-.19c.103-.092.191-.198.26-.315a1.722 1.722 0 00.236-.902 1.55 1.55 0 00-.184-.785 1.343 1.343 0 00-.512-.485 1.642 1.642 0 00-.43-.141 2.817 2.817 0 00-.512-.044H8.675v2.944l1.757-.01zm7.58 3.216c-.499.004-.994-.089-1.454-.272a3.436 3.436 0 01-1.91-1.833 3.348 3.348 0 010-2.653c.178-.407.44-.777.773-1.086.329-.315.72-.566 1.152-.737a3.856 3.856 0 012.822 0c.417.165.798.4 1.127.693l-.44.485a3.965 3.965 0 00-.922-.591 2.807 2.807 0 00-1.168-.238 2.9 2.9 0 00-1.173.233 2.9 2.9 0 00-.917.616 2.75 2.75 0 00-.589.902 2.773 2.773 0 00-.21 1.081 2.806 2.806 0 00.814 1.979c.26.259.572.466.918.61.367.156.765.234 1.167.229.403.008.802-.07 1.168-.228.33-.144.636-.33.912-.553l.415.485c-.33.286-.712.514-1.127.674-.435.163-.9.244-1.368.238l.01-.034zm4.395-6.751h.733v2.842h3.77v-2.842h.732v6.649h-.733v-3.215h-3.77v3.215h-.732v-6.649zm7.386 0h.732v6.649h-.732v-6.649zm4.277.592h-1.875v-.592h4.477v.592h-1.865v6.057h-.732v-6.057h-.005zm4.266-.592h4.318v.592H39.07v2.347h3.41v.596h-3.41v2.522h3.585v.592h-4.318v-6.649zm9.65 6.75c-.5.004-.994-.088-1.455-.27a3.601 3.601 0 01-1.147-.733 3.423 3.423 0 01-.753-1.087 3.32 3.32 0 010-2.652c.182-.406.444-.775.773-1.087a3.68 3.68 0 011.153-.737c.45-.186.937-.28 1.429-.276.48-.004.955.084 1.398.257.415.168.796.402 1.127.693l-.446.485a4.04 4.04 0 00-.916-.591 2.813 2.813 0 00-1.173-.238 2.899 2.899 0 00-2.085.849c-.258.261-.46.568-.594.902a2.872 2.872 0 00.005 2.163 2.807 2.807 0 001.521 1.508c.365.156.762.234 1.163.228a2.77 2.77 0 001.168-.228 4 4 0 00.911-.553l.415.485a3.688 3.688 0 01-2.494.912v-.03zm5.788-6.158h-1.87v-.592h4.466v.592h-1.864v6.057h-.732v-6.057zm6.883 6.144c-.278 0-.555-.032-.824-.097a3.021 3.021 0 01-.723-.281 2.242 2.242 0 01-.563-.441 1.777 1.777 0 01-.358-.578 2.344 2.344 0 01-.113-.518 4.315 4.315 0 01-.03-.578v-4.243h.732v4.69c.01.128.033.255.071.378.056.155.141.3.251.427.114.134.25.248.405.34.157.1.33.176.512.227.201.057.41.085.62.082.213.003.425-.025.63-.082a1.96 1.96 0 00.512-.228 1.58 1.58 0 00.405-.34c.109-.125.189-.27.235-.426.036-.127.058-.257.067-.388v-4.68h.727v4.234c0 .194 0 .388-.026.572a2.05 2.05 0 01-.107.514 1.731 1.731 0 01-.353.582 2.417 2.417 0 01-.569.451 2.953 2.953 0 01-.722.286 3.53 3.53 0 01-.83.097h.051zm4.758-6.736h2.5c.22.001.439.017.656.048.202.034.399.094.584.18.334.16.616.406.814.708.214.329.323.71.312 1.096a2.22 2.22 0 01-.148.825c-.091.229-.223.442-.39.63a1.71 1.71 0 01-.512.417 1.727 1.727 0 01-.594.175l.876 1.285.866 1.285h-.876l-.84-1.256-.845-1.266h-1.655v2.522h-.732v-6.649h-.016zm2.485 3.535h.41c.138-.011.275-.036.41-.072a.877.877 0 00.332-.19c.105-.091.195-.198.266-.315.153-.277.233-.584.236-.897a1.498 1.498 0 00-.19-.786 1.278 1.278 0 00-.512-.485 1.638 1.638 0 00-.43-.14 2.697 2.697 0 00-.512-.044h-1.772v2.944l1.762-.015zm4.21-3.535h4.318v.592h-3.586v2.347h3.411v.596h-3.41v2.522h3.585v.592H72.11v-6.649zM54.937 17.211a.657.657 0 01.19-.523.76.76 0 011.07 0 .655.655 0 01.19.524c-.002 3.402-1.068 6.728-3.065 9.557-1.998 2.829-4.836 5.033-8.156 6.335a19.12 19.12 0 01-10.499.978c-3.524-.664-6.762-2.303-9.303-4.709-2.541-2.406-4.272-5.471-4.973-8.809a16.359 16.359 0 011.033-9.94c1.375-3.144 3.703-5.831 6.69-7.722C31.103 1.01 34.616 0 38.21 0h.082c.191 0 .375.072.51.2a.666.666 0 01.212.484.666.666 0 01-.212.483.743.743 0 01-.51.2h-.082c-3.308 0-6.54.93-9.291 2.67-2.75 1.739-4.893 4.212-6.16 7.105a15.054 15.054 0 00-.95 9.149c.645 3.071 2.237 5.893 4.576 8.107 2.339 2.214 5.318 3.723 8.562 4.333 3.244.611 6.607.298 9.662-.9 3.056-1.199 5.668-3.229 7.505-5.832 1.838-2.604 2.819-5.666 2.819-8.797l.005.01zM49.99.252h1.669c.078-.004.157-.004.236 0a.961.961 0 01.368.146.88.88 0 01.251.237c.064.095.114.198.149.306.03.11.046.225.046.34a.934.934 0 01-.384.751.896.896 0 01-.302.14c.117.02.228.06.327.122a.947.947 0 01.267.213.916.916 0 01.246.621c0 .13-.02.26-.062.383a1.336 1.336 0 01-.18.335 1.14 1.14 0 01-.886.436H49.99V.213v.04zm1.5 3.705H51.905a.641.641 0 00.379-.28.893.893 0 00.128-.486.709.709 0 00-.173-.466.782.782 0 00-.447-.257 1.04 1.04 0 00-.174-.029h-1.183v1.557l1.055-.039zm-.062-1.94h.205c.066-.007.131-.02.195-.038a.662.662 0 00.313-.257.685.685 0 00.117-.408.857.857 0 00-.097-.407.572.572 0 00-.154-.168.608.608 0 00-.21-.099.705.705 0 00-.179-.029h-1.183v1.426l.993-.02zm5.22-1.765h.512l-1.506 2.299v1.77h-.45v-1.77L56.642.252h.005zm-2.956 0h.513l1.162 1.765-.271.388L53.677.252h.015z"/><path d="M32.54 23.938a5.663 5.663 0 003.636-1.179c.474-.371.852-.84 1.107-1.37.255-.53.379-1.108.363-1.69.017-.54-.099-1.076-.338-1.567a3.53 3.53 0 00-1.04-1.26 5.005 5.005 0 00-3.119-1.125l4-3.71v-1h-6.98l-.795 1.218h5.865l-4.134 3.821v.922a5.8 5.8 0 011.47-.175c2.218 0 3.637 1.14 3.637 2.881.013.425-.083.846-.28 1.228-.198.382-.49.713-.852.964a4.469 4.469 0 01-2.638.795 6.83 6.83 0 01-3.826-1.066v1.391a7.526 7.526 0 003.903.927l.02-.005z"/><path fill-rule="evenodd" clip-rule="evenodd" d="M55.603 13.749l1.367 2.24 1.368 2.24h-5.465l1.363-2.24 1.367-2.24z"/><path d="M42.855 23.938a5.652 5.652 0 003.637-1.179c.475-.37.855-.838 1.11-1.369.256-.53.38-1.108.365-1.69.015-.54-.101-1.077-.34-1.567a3.545 3.545 0 00-1.038-1.261 5.015 5.015 0 00-3.12-1.125l4-3.71v-1h-6.985l-.79 1.218h5.86l-4.133 3.821v.922c.487-.124.99-.184 1.495-.18 2.218 0 3.632 1.14 3.632 2.881.014.425-.081.846-.278 1.228a2.658 2.658 0 01-.849.964 4.496 4.496 0 01-2.643.796 6.856 6.856 0 01-3.826-1.067v1.392a7.529 7.529 0 003.903.926z"/></symbol><symbol viewBox="0 0 51 50" id="sad" xmlns="http://www.w3.org/2000/svg"><path d="M25.5 2.778a22.222 22.222 0 100 44.444 22.222 22.222 0 000-44.444zm0 41.666a19.445 19.445 0 110-38.89 19.445 19.445 0 010 38.89z"/><path d="M35.444 22.333a2.5 2.5 0 100-5 2.5 2.5 0 000 5zM16.347 22.333a2.5 2.5 0 100-5 2.5 2.5 0 000 5zM25.722 27.778a12.5 12.5 0 00-10.18 5.25 1.39 1.39 0 102.264 1.61 9.722 9.722 0 0115.708-.18 1.389 1.389 0 102.222-1.666 12.5 12.5 0 00-10.014-5.014z"/></symbol><symbol viewBox="0 0 20 21" id="triangle-right" xmlns="http://www.w3.org/2000/svg"><path d="M4.613 18.738a.837.837 0 00.861-.053l10.833-7.5a.834.834 0 000-1.37l-10.833-7.5A.833.833 0 004.166 3v15a.834.834 0 00.447.738z"/></symbol><symbol viewBox="0 0 15 15" id="youtube" xmlns="http://www.w3.org/2000/svg"><path d="M8.702 7.375l-1.684-.786c-.147-.068-.268.008-.268.17V8.24c0 .163.12.24.268.171l1.684-.786c.147-.069.147-.181 0-.25zM7.5.3a7.2 7.2 0 100 14.4A7.2 7.2 0 007.5.3zm0 10.125c-3.685 0-3.75-.332-3.75-2.925s.065-2.925 3.75-2.925 3.75.332 3.75 2.925-.065 2.925-3.75 2.925z"/></symbol></svg>