<svg width="280" height="100" viewBox="0 0 280 100" fill="none" xmlns="http://www.w3.org/2000/svg">
<path d="M90.0869 78.0387H74.2627V98.3425H52.3309V78.0387H0V62.9834L45.8069 1.65745H69.4044L26.9289 59.8066H53.0249V41.7127H74.2627V59.8066H90.0869V78.0387Z" fill="#303030"/>
<path d="M138.455 100C130.404 100 123.233 98.0203 116.94 94.0608C110.647 90.1013 105.696 84.3923 102.087 76.9337C98.5708 69.3831 96.8126 60.4052 96.8126 50C96.8126 39.5948 98.5708 30.663 102.087 23.2044C105.696 15.6538 110.647 9.89871 116.94 5.93922C123.233 1.97974 130.404 0 138.455 0C146.506 0 153.678 1.97974 159.971 5.93922C166.263 9.89871 171.168 15.6538 174.684 23.2044C178.293 30.663 180.098 39.5948 180.098 50C180.098 60.4052 178.293 69.3831 174.684 76.9337C171.168 84.3923 166.263 90.1013 159.971 94.0608C153.678 98.0203 146.506 100 138.455 100ZM138.455 81.0773C144.378 81.0773 149.005 78.5451 152.336 73.4807C155.76 68.4162 157.472 60.5893 157.472 50C157.472 39.4107 155.76 31.5838 152.336 26.5193C149.005 21.4549 144.378 18.9226 138.455 18.9226C132.625 18.9226 127.998 21.4549 124.574 26.5193C121.243 31.5838 119.577 39.4107 119.577 50C119.577 60.5893 121.243 68.4162 124.574 73.4807C127.998 78.5451 132.625 81.0773 138.455 81.0773Z" fill="#303030"/>
<path d="M280 78.0387H264.176V98.3425H242.244V78.0387H189.913V62.9834L235.72 1.65745H259.318L216.842 59.8066H242.938V41.7127H264.176V59.8066H280V78.0387Z" fill="#303030"/>
</svg>
